# xmcd CD database file
#
# Track frame offsets:
#	150
#	23130
#	48405
#	76462
#	104875
#	138870
#	162875
#	184027
#	207032
#
# Disc length: 3041 seconds
#
# Revision: 0
# Processed by: cddbd v1.5.1PL0 Copyright (c) Steve Scherf et al.
# Submitted via: CDex 1.51
#
DISCID=730bdf09
DTITLE=Chip Shelton - Flute Bass-ics
DYEAR=2003
DGENRE=Jazz
TTITLE0=Biko and Mandela
TTITLE1=Blue Chip
TTITLE2=In an Island Way
TTITLE3=I'll Remember April
TTITLE4=The Gift/Secret of the Iron Balls
TTITLE5=The Scene is Clean
TTITLE6=Surrender
TTITLE7=Keep Hope Alive
TTITLE8=Valse for Mom
EXTD=YEAR: 2003
EXTT0=
EXTT1=
EXTT2=
EXTT3=
EXTT4=
EXTT5=
EXTT6=
EXTT7=
EXTT8=
PLAYORDER=
